<svg width="47" height="69" viewBox="0 0 47 69" fill="none" xmlns="http://www.w3.org/2000/svg">
<path d="M2.02539 17.4726C2.26459 15.4371 2.81659 13.4547 3.75499 11.5608C5.46619 8.127 8.09739 5.5428 11.667 3.8436C14.519 2.4984 17.5366 1.8789 20.6646 1.6842C20.867 1.6665 21.051 1.6134 21.2534 1.5957C22.4126 1.5957 23.5718 1.5957 24.731 1.5957C26.0926 1.7727 27.4726 1.8789 28.8158 2.1267C32.5326 2.7816 35.8814 4.1976 38.623 6.7287C41.5302 9.4191 43.2046 12.7467 43.8118 16.5699C44.0142 17.8089 44.0878 19.0833 44.0878 20.34C44.1062 24.4818 44.1062 28.6413 44.1062 32.7831" stroke="black" stroke-width="3" stroke-miterlimit="10" stroke-linecap="round" stroke-linejoin="round"/>
<path d="M44.125 36.022C44.125 36.1452 44.125 35.9164 44.125 36.022" stroke="black" stroke-width="5" stroke-miterlimit="10" stroke-linecap="round" stroke-linejoin="round"/>
<path d="M44.1242 39.279C44.1242 42.5358 44.1242 45.7749 44.1242 49.0317C44.1242 51.9876 43.5722 54.8196 42.2474 57.4923C40.5362 60.9084 37.9418 63.4926 34.3722 65.1564C30.3058 67.068 25.9634 67.5459 21.4922 67.3866C18.1066 67.2627 14.813 66.6609 11.7402 65.2272C7.54497 63.2625 4.71138 60.1296 3.07378 55.9524C2.19058 53.6868 1.85938 51.315 1.85938 48.8901C1.85938 39.7215 1.85938 30.5529 1.85938 21.402" stroke="black" stroke-width="3" stroke-miterlimit="10" stroke-linecap="round" stroke-linejoin="round"/>
<path d="M20.2035 18.8887C20.2035 19.8268 20.1851 20.7649 20.2035 21.7207C20.2403 23.3314 21.3995 24.4996 22.9635 24.5173C24.5643 24.535 25.7787 23.3668 25.7971 21.7207C25.8155 19.8799 25.8155 18.0391 25.7971 16.1983C25.7787 14.5876 24.6011 13.4194 23.0371 13.4017C21.4363 13.384 20.2403 14.5699 20.2035 16.1983C20.1851 17.101 20.2035 17.986 20.2035 18.8887Z" stroke="black" stroke-width="2" stroke-miterlimit="10"/>
</svg>
